<?xml version="1.0" encoding="UTF-8"?>
<svg width="100px" height="20px" viewBox="0 0 100 20" version="1.1" xmlns="http://www.w3.org/2000/svg" xmlns:xlink="http://www.w3.org/1999/xlink">
    <!-- Generator: Sketch 53.2 (72643) - https://sketchapp.com -->
    <title>Group Copy</title>
    <desc>Created with Sketch.</desc>
    <g id="사이트맵" stroke="none" stroke-width="1" fill="none" fill-rule="evenodd">
        <g id="Desktop-HD" transform="translate(-593.000000, -422.000000)" fill="#000000">
            <g id="Group-Copy" transform="translate(593.000000, 422.000000)">
                <path d="M75.9101187,5 C76.7655021,5 77.506207,4.65116279 78.1304905,3.95186776 C78.6857578,3.33360344 78.9747198,2.68819383 78.9977253,2.01604408 C79.0207307,1.55903087 78.8704983,1.10890528 78.5466796,0.665262134 C78.2228608,0.221618994 77.8185231,2.26485497e-14 77.3326207,2.26485497e-14 C76.4998941,2.26485497e-14 75.742458,0.322502228 75.0603124,0.967506685 C74.3778182,1.6129163 74.0250683,2.28506604 74.0024115,2.98355077 C73.9557035,4.32825541 74.5921869,5 75.9101187,5" id="Fill-1"></path>
                <path d="M65.3706508,10.855614 C65.3206508,11.6938596 64.8751284,12.6714035 64.0337105,13.7889474 C63.1422926,14.9763158 62.2635612,15.57 61.3971433,15.57 C60.629606,15.57 60.2579642,15.0812281 60.2829642,14.1033333 C60.3075911,13.3352632 60.7288597,12.415614 61.5456508,11.344386 C62.4613224,10.1342105 63.4146806,9.50578947 64.4049791,9.45877193 C64.8505015,9.43596491 65.1478896,9.57561404 65.296397,9.8777193 C65.3706508,10.0647368 65.3949045,10.3903509 65.3706508,10.855614 L65.3706508,10.855614 Z M6.27624779,8.03736842 C6.39975525,7.21701754 6.87662092,6.31842105 7.7068448,5.34157895 C8.61281495,4.26192982 9.47027764,3.74368421 10.2788597,3.79140351 C11.0180388,3.8345614 11.3482627,4.26894737 11.2710239,5.09280702 C11.1982627,5.82964912 10.7833373,6.6777193 10.024009,7.63561404 C9.11505376,8.76017544 8.19639704,9.31701754 7.27027764,9.3054386 C6.85311346,9.30438596 6.5710239,9.18333333 6.42438211,8.9454386 C6.27774032,8.70859649 6.22885973,8.4054386 6.27624779,8.03736842 L6.27624779,8.03736842 Z M19.8419194,13.684386 C19.8661732,12.7998246 20.2624418,11.8742105 21.0303523,10.9078947 C21.7975164,9.9422807 22.5531135,9.45877193 23.2956508,9.45877193 C23.8650538,9.45877193 24.1370687,9.77315789 24.1128149,10.4015789 C24.0878149,10.8678947 23.7165463,11.472807 22.9986358,12.2173684 C22.1072179,13.0791228 21.054606,13.7194737 19.8419194,14.1384211 L19.8419194,13.684386 Z M19.7385612,15.5201754 L19.7385612,15.5201754 C19.8269941,15.5145614 19.9146806,15.5103509 19.9949045,15.507193 C19.9146806,15.5103509 19.8269941,15.5145614 19.7385612,15.5201754 L19.7385612,15.5201754 Z M99.0534866,13.2303509 C98.5825911,13.7426316 97.9762478,14.29 97.2337105,14.8717544 C96.3422926,15.57 95.7232627,15.9194737 95.3769941,15.9194737 C94.9060985,15.9194737 94.6090836,15.8264912 94.4855761,15.6398246 C94.3613224,15.4538596 94.3120687,15.1163158 94.3370687,14.627193 C94.3370687,14.4408772 94.4911732,13.7254386 94.8012478,12.4794737 C95.110203,11.2342105 95.2773672,10.2854386 95.3023672,9.63350877 C95.3519941,8.67912281 95.1538597,7.94578947 94.7083373,7.43315789 C94.1881881,6.80473684 93.5564717,6.51315789 92.1456508,6.63 C90.7348299,6.74684211 89.2613224,7.27070175 87.7266209,8.20157895 C87.0825911,8.5977193 86.4512478,9.06333333 85.8325911,9.59842105 C85.9068448,9.24929825 85.9441582,8.90017544 85.9441582,8.55070175 C85.9441582,7.0377193 85.3743821,6.28087719 84.2359493,6.28087719 C83.8643075,6.28087719 83.1710239,6.73491228 82.1560985,7.64263158 C80.7199045,8.92368421 79.9400538,9.61035088 79.8165463,9.70298246 C79.6060985,9.89140351 79.5012478,10.0794737 79.5060985,10.2678947 C79.5146806,10.6370175 79.7422926,10.8082456 80.1881881,10.7822807 C80.3658,10.7721053 80.5236358,10.7222807 80.6669194,10.6422807 C80.7460239,10.5949123 80.771397,10.5777193 80.7956508,10.5591228 C81.4124418,10.13 81.7941582,9.91245614 81.9333373,9.91245614 C82.1803523,9.91245614 82.2919194,10.1457895 82.2676657,10.6110526 C81.9975164,11.8791228 81.7277403,13.0163158 81.4583373,14.0261404 C81.1553523,14.2994737 80.8187851,14.5812281 80.4478896,14.8717544 C79.5568448,15.57 78.9374418,15.9194737 78.5911732,15.9194737 C77.7982627,15.9194737 77.4146806,15.4187719 77.4400538,14.4173684 C77.8113224,12.2296491 78.1575911,10.4250877 78.479606,9.00473684 C78.5784866,8.16649123 78.4363224,7.48578947 78.0523672,6.96192982 C77.668412,6.43807018 77.068412,6.21105263 76.2512478,6.28087719 C75.7318448,6.32789474 74.9389344,6.79315789 73.8747552,7.6777193 C73.0919194,8.34473684 72.3098299,9.01140351 71.5273672,9.67807018 C71.2710239,9.89561404 71.1635612,10.0868421 71.168412,10.2787719 C71.1769941,10.6478947 71.404606,10.8194737 71.8508747,10.7935088 C72.0359493,10.7826316 72.2005015,10.7292982 72.3486358,10.6422807 C72.4154269,10.6022807 72.4307254,10.5921053 72.4452776,10.5812281 C73.0810985,10.1373684 73.4732627,9.91245614 73.6150538,9.91245614 C74.060203,9.91245614 74.2829642,10.215614 74.2829642,10.8205263 C74.2829642,10.9373684 74.0419194,11.7984211 73.5590836,13.4047368 C73.5038597,13.5885965 73.4523672,13.7654386 73.4031135,13.9384211 C73.0818448,14.2212281 72.7333373,14.4977193 72.3523672,14.7664912 C71.4613224,15.4187719 70.7426657,15.7447368 70.1982627,15.7447368 C69.2822179,15.7447368 68.8486358,15.1980702 68.899009,14.1033333 C68.9728896,12.5205263 69.1710239,11.1001754 69.4930388,9.84298246 C69.6165463,9.42368421 69.8393075,8.77245614 70.1613224,7.88754386 C69.9385612,7.49175439 69.4057254,7.1422807 68.5643075,6.83947368 C67.7225164,6.53736842 66.7691582,6.38578947 65.7049791,6.38578947 C65.2344567,6.38578947 64.7639344,6.42052632 64.2937851,6.49035088 C61.5699045,6.88649123 59.3665463,8.10894737 57.6833373,10.1570175 C56.6355761,11.4324561 55.968412,12.7485965 55.6710239,14.1040351 C55.3904269,14.3531579 55.0863224,14.6082456 54.7501284,14.8717544 C53.8587105,15.57 53.2396806,15.9194737 52.893412,15.9194737 C52.4228896,15.9194737 52.1255015,15.8264912 52.0019941,15.6398246 C51.8777403,15.4538596 51.8288597,15.1163158 51.8534866,14.627193 C51.8534866,14.4408772 52.0079642,13.7254386 52.3176657,12.4794737 C52.6269941,11.2342105 52.7941582,10.2854386 52.8187851,9.63350877 C52.868412,8.67912281 52.6702776,7.94578947 52.2247552,7.43315789 C51.7049791,6.80473684 50.8508747,6.53736842 49.6620687,6.63 C48.6717702,6.69982456 47.718412,7.04894737 46.8027403,7.6777193 C46.2579642,8.05035088 45.7008747,8.55070175 45.1314717,9.17947368 C44.9333373,9.34263158 44.7475164,9.49385965 44.5747552,9.63350877 C44.599009,8.67912281 44.4008747,7.94578947 43.9803523,7.43315789 C43.4605761,6.80473684 42.5937851,6.53736842 41.3807254,6.63 C39.9695314,6.74684211 38.6941582,7.27070175 37.5557254,8.20157895 C37.060203,8.5977193 36.6273672,9.06333333 36.2560985,9.59842105 C36.3053523,9.38894737 36.3299791,9.16789474 36.3299791,8.93491228 C36.3299791,8.21350877 36.1318448,7.57912281 35.7363224,7.03175439 C35.3396806,6.48508772 34.8199045,6.2345614 34.1762478,6.28087719 C33.8049791,6.30438596 33.0993821,6.76964912 32.0594567,7.6777193 C30.9064717,8.68719298 30.1777403,9.32052632 29.8706508,9.57947368 C29.8064717,9.62614035 29.7881881,9.64649123 29.7658,9.66649123 C29.5628149,9.86263158 29.4766209,10.0226316 29.474009,10.1864912 C29.4669194,10.5685965 29.6949045,10.7542105 30.1572179,10.744386 C30.3210239,10.7408772 30.4706508,10.7054386 30.6087105,10.6436842 C30.7389344,10.5798246 30.8389344,10.5159649 30.9292329,10.4303509 C31.4363224,10.0836842 31.7505015,9.91245614 31.874009,9.91245614 C32.1460239,9.91245614 32.2575911,10.1222807 32.2083373,10.5412281 C32.1833373,11.1468421 32.0654269,11.9907018 31.8553523,13.0731579 C31.8467702,13.1163158 31.8396806,13.1570175 31.8314717,13.1994737 C30.9650538,13.85 29.7788597,14.4770175 28.2721433,15.0812281 C26.1672926,15.9426316 24.224009,16.3731579 22.4415463,16.3731579 C21.5505015,16.3731579 20.8818448,16.0822807 20.4363224,15.5001754 C22.8374418,15.1282456 24.8307254,14.2549123 26.4154269,12.8808772 C27.9008747,11.6236842 28.593412,10.4015789 28.4949045,9.21421053 C28.346397,7.35210526 27.0587105,6.42052632 24.6325911,6.42052632 C22.0083373,6.42052632 19.7307254,7.35210526 17.7993821,9.21421053 C16.0411732,10.9142105 15.1501284,12.7064912 15.1255015,14.5921053 C15.1143075,15.132807 15.1732627,15.6380702 15.2952776,16.1114035 C15.3034866,16.1419298 15.3128149,16.1721053 15.3210239,16.2026316 C15.3277403,16.227193 15.3348299,16.2514035 15.3415463,16.2759649 C14.1658,16.6910526 13.1172926,16.2078947 12.6012478,15.8878947 C12.2956508,15.6885965 12.035203,15.475614 11.8191582,15.2675439 C11.7986358,15.2478947 11.7762478,15.2275439 11.7560985,15.2078947 C9.76841196,13.2966667 10.7755015,11.5482456 10.7755015,11.5482456 C11.8803523,11.0485965 12.8587105,10.3085965 13.7034866,9.32263158 C14.8337105,8.01526316 15.5441582,6.55315789 15.8370687,4.93526316 C15.8725164,4.74157895 15.8986358,4.53561404 15.9131881,4.31842105 C16.0654269,2.01596491 15.0575911,0.780175439 12.8893075,0.609298246 C10.9732627,0.475263158 8.96841196,1.35 6.87326271,3.23210526 C6.9318448,3.03982456 6.9676657,2.84614035 6.9807254,2.64964912 C7.02699405,1.95526316 6.8818448,1.34122807 6.54639704,0.81 C6.21020301,0.277368421 5.72960599,0.0145614035 5.10274032,0.0219298246 C4.75535226,0.0233333333 4.07960599,0.419122807 3.07699405,1.21105263 C1.81318808,2.18684211 1.06617316,2.75877193 0.832964203,2.92754386 C0.566919427,3.14122807 0.460949278,3.31315789 0.457591069,3.49 C0.449755248,3.84087719 0.658337338,4.01280702 1.08333734,4.00508772 C1.24900898,4.0022807 1.39863585,3.96263158 1.53594928,3.8945614 C2.1699045,3.52368421 2.56468062,3.33947368 2.72624779,3.34859649 C3.1187851,3.37175439 3.26617316,3.59807018 3.16841196,4.02684211 C3.08221793,4.9777193 2.64117316,5.85385965 1.67251644,9.28298246 C0.702367189,12.712807 0.155725397,15.0208772 0.0310985318,16.2082456 C-0.177483558,18.3029825 0.663188084,19.4384211 2.55274032,19.6149123 C4.62736719,19.8022807 6.19154629,18.7598246 7.24677017,16.4878947 C6.86505376,16.6408772 6.50162092,16.7057895 6.15497913,16.6854386 C5.87811346,16.6692982 5.61169555,16.49 5.35609853,16.1464912 C4.95348659,15.5738596 4.79975525,14.7429825 4.8960239,13.6517544 C4.90647167,13.5331579 4.91654629,13.4345614 4.92662092,13.3489474 C4.92736719,13.3464912 4.94527764,13.2710526 4.9460239,13.2047368 C4.96020301,13.1057895 4.97512838,13.0289474 4.99080002,12.9629825 C5.05199405,12.7664912 5.17177017,12.5647368 5.40535226,12.5419298 C5.63035226,12.5198246 5.69863585,12.5777193 5.80124779,12.6921053 C5.84639704,12.7426316 5.88893435,12.8135088 5.92662092,12.8878947 C6.05385973,13.2489474 6.20348659,13.6552632 6.20348659,13.6552632 C6.64080002,14.8401754 7.58408361,16.4349123 8.69303883,17.5275439 C9.93445674,18.7517544 11.3415463,19.3668421 12.1027403,19.5524561 C12.3691582,19.6173684 12.6422926,19.6468421 12.9199045,19.6475439 C15.0508747,19.5012281 16.4064717,18.1457895 16.4064717,18.1457895 C16.4228896,18.1633333 16.4534866,18.1935088 16.4893075,18.2278947 C16.5206508,18.2587719 16.5508747,18.2907018 16.5829642,18.3208772 C16.6116955,18.3478947 16.6426657,18.3724561 16.6721433,18.3987719 C16.729606,18.4485965 16.7643075,18.4815789 16.8016209,18.5117544 C17.6628149,19.2040351 18.8366955,19.5510526 20.3247552,19.5510526 C23.0228896,19.5510526 25.6848299,18.8412281 28.3090836,17.4208772 C29.6736358,16.6963158 30.7445314,15.9717544 31.5262478,15.247193 C31.5158,15.3735088 31.5068448,15.4945614 31.5023672,15.6047368 C31.4527403,16.8391228 31.7255015,17.7584211 32.3195314,18.3636842 C33.0374418,19.0850877 34.2505015,19.4229825 35.9590836,19.3766667 C35.7363224,18.8647368 35.649009,17.9566667 35.6986358,16.6524561 C35.7732627,15.2092982 36.1687851,13.8236842 36.8874418,12.4970175 C37.6049791,11.17 38.2736358,10.5064912 38.8926657,10.5064912 C39.6105761,10.5064912 39.9445314,10.9373684 39.8952776,11.7984211 C39.8706508,12.3808772 39.7467702,13.0440351 39.524009,13.7889474 C39.3012478,14.5342105 39.1769941,15.2791228 39.1527403,16.0240351 C39.1027403,17.2114035 39.3878149,18.0615789 40.0068448,18.5735088 C40.6997552,19.1549123 41.9128149,19.4229825 43.6460239,19.3766667 C43.3982627,18.8412281 43.2993821,18.072807 43.349009,17.0717544 C43.4232627,15.6517544 43.9307254,14.1850877 44.8717702,12.6714035 C45.7631881,11.2282456 46.5299791,10.5064912 47.174009,10.5064912 C47.768412,10.5064912 48.0523672,10.9489474 48.0281135,11.8335088 C48.0034866,12.415614 47.8482627,13.2303509 47.5639344,14.2777193 C47.2792329,15.3257895 47.1243821,16.2219298 47.0997552,16.9668421 C47.0501284,18.6429825 47.8299791,19.4812281 49.4393075,19.4812281 C51.0982627,19.4812281 52.7568448,18.8061404 54.4158,17.4559649 C54.8273672,17.1159649 55.2064717,16.7619298 55.5583373,16.395614 C55.6303523,16.8861404 55.7680388,17.3335088 55.9751284,17.7352632 C56.5191582,18.8061404 57.4978896,19.352807 58.9090836,19.3766667 C59.8747552,19.3994737 60.9516209,19.167193 62.1396806,18.6780702 C63.2038597,18.2359649 64.0579642,17.7236842 64.7019941,17.1415789 C64.6277403,18.7012281 65.3949045,19.4812281 67.004606,19.4812281 C68.6631881,19.4812281 70.3221433,18.8061404 71.9810985,17.4559649 C72.274009,17.2138596 72.5516209,16.9647368 72.8143075,16.7092982 C72.8068448,16.7987719 72.8001284,16.8864912 72.7975164,16.9668421 C72.7728896,17.7124561 72.9650538,18.3173684 73.3732627,18.7829825 C73.7818448,19.2482456 74.3699045,19.4812281 75.1370687,19.4812281 C76.7956508,19.4812281 78.454606,18.8061404 80.1135612,17.4559649 C80.4199045,17.2029825 80.7094567,16.9429825 80.9825911,16.6752632 C81.1322179,18.7040351 82.660203,19.687193 85.5728896,19.6208772 C85.3497552,19.1321053 85.2628149,18.1426316 85.3128149,16.6524561 C85.3624418,15.1394737 85.9236358,13.7075439 86.996397,12.3570175 C87.968412,11.1236842 88.8661732,10.5064912 89.6896806,10.5064912 C90.2374418,10.5064912 90.4870687,10.9373684 90.4374418,11.7984211 C90.4113224,12.3570175 90.2695314,13.1661404 90.0105761,14.2257895 C89.7516209,15.2850877 89.6090836,16.1984211 89.5833373,16.9668421 C89.5333373,18.6429825 90.3135612,19.4812281 91.9228896,19.4812281 C93.5810985,19.4812281 95.2404269,18.8061404 96.8993821,17.4559649 C98.1120687,16.4552632 99.0654269,15.3373684 99.7590836,14.1033333 L99.0534866,13.2303509 Z" id="Fill-3"></path>
            </g>
        </g>
    </g>
</svg>